<?xml version="1.0" encoding="iso-8859-1"?>
<!-- Generator: Adobe Illustrator 18.0.0, SVG Export Plug-In . SVG Version: 6.00 Build 0)  -->
<!DOCTYPE svg PUBLIC "-//W3C//DTD SVG 1.1//EN" "http://www.w3.org/Graphics/SVG/1.1/DTD/svg11.dtd">
<svg version="1.1" id="Capa_1" xmlns="http://www.w3.org/2000/svg" xmlns:xlink="http://www.w3.org/1999/xlink" x="0px" y="0px"
	 viewBox="0 0 512 512" style="enable-background:new 0 0 512 512;" xml:space="preserve">
<g>
	<path style="fill:#3CB44A;" d="M388,184h-160c-49.76,0-91.886,32.476-106.48,77.369L96.995,241.75
		c-1.418-1.133-3.18-1.75-4.996-1.75h-72c-2.871,0-5.523,1.539-6.949,4.031c-1.422,2.5-1.398,5.563,0.063,8.039l102.887,174.116V448
		h384V296C500,234.144,449.856,184,388,184z"/>
	<path style="fill:#B1C3D0;" d="M227.999,184v-68c0-46.392,37.608-84,84-84s84,37.608,84,84v68.404
		c11.21,0.794,21.943,3.229,32,7.082V116C428,51.935,376.065,0,312,0h0c-64.065,0-116,51.935-116,116v72.734
		C206.146,185.707,216.865,184,227.999,184z"/>
	<path style="fill:#8EADBE;" d="M227.999,184v-68c0-43.691,33.364-79.564,76-83.596c-2.636-0.249-5.299-0.404-8-0.404
		c-46.392,0-84,37.608-84,84v69.206C217.231,184.456,222.559,184,227.999,184z"/>
	<path style="fill:#8EADBE;" d="M411.999,116v70.643c5.506,1.203,10.831,2.862,16,4.843V116C428,51.935,376.065,0,312,0h0
		c-2.701,0-5.345,0.223-8,0.404C364.316,4.531,411.999,54.636,411.999,116z"/>
	<path style="fill:#B1C3D0;" d="M115.999,448v32c0,17.673,14.327,32,32,32h320c17.673,0,32-14.327,32-32v-32H115.999z"/>
	<path style="fill:#0E9247;" d="M115.999,296c0-12.001,1.934-23.541,5.428-34.38c-6.987-3.979-16.211-0.418-18.213,7.733
		c-2.097,8.539-3.215,17.459-3.215,26.646v44.811c0,9.543-12.595,12.986-17.449,4.771L67.999,320c-15.5-25.5-24.183-16.31-24-16
		l56,95.109l16,27.077V296z"/>
	<path style="fill:#0E9247;" d="M452.315,204.352c-13.688-9.609-31.451,5.592-23.112,20.089
		c9.409,16.359,14.796,35.319,14.796,55.559v120c0,17.673-14.327,32-32,32h-280c-8.837,0-16,7.163-16,16v0h384V296
		C499.999,258.084,481.151,224.594,452.315,204.352z"/>
	<path style="fill:#0E9247;" d="M387.999,184h-152v0c0-17.673,14.327-32,32-32h88C373.673,152,387.999,166.327,387.999,184
		L387.999,184z"/>
	<path style="fill:#8EADBE;" d="M499.999,448L499.999,448h-64v32v0c0,8.837-7.163,16-16,16h-256c-8.837,0-16,7.163-16,16h216h32h72
		c17.673,0,32-14.327,32-32L499.999,448L499.999,448z M483.999,480.005V480h0C484,480,483.999,480.003,483.999,480.005z"/>
	<path style="fill:#B1C3D0;" d="M307.999,136c-8.836,0-16,7.163-16,16h32C323.999,143.163,316.836,136,307.999,136z"/>
</g>
<g>
</g>
<g>
</g>
<g>
</g>
<g>
</g>
<g>
</g>
<g>
</g>
<g>
</g>
<g>
</g>
<g>
</g>
<g>
</g>
<g>
</g>
<g>
</g>
<g>
</g>
<g>
</g>
<g>
</g>
</svg>
