<?xml version="1.0" encoding="iso-8859-1"?>
<!-- Generator: Adobe Illustrator 18.0.0, SVG Export Plug-In . SVG Version: 6.00 Build 0)  -->
<!DOCTYPE svg PUBLIC "-//W3C//DTD SVG 1.1//EN" "http://www.w3.org/Graphics/SVG/1.1/DTD/svg11.dtd">
<svg version="1.1" id="Capa_1" xmlns="http://www.w3.org/2000/svg" xmlns:xlink="http://www.w3.org/1999/xlink" x="0px" y="0px"
	 viewBox="0 0 512 512" style="enable-background:new 0 0 512 512;" xml:space="preserve">
<g>
	<path style="fill:#F5B445;" d="M130.128,120.751c-6.202,5.836-10.126,14.061-10.126,23.249c0,17.673,14.327,32,32,32
		c9.188,0,17.413-3.924,23.249-10.126L130.128,120.751z"/>
	<path style="fill:#ED2C39;" d="M291.314,44.688l-40-40c-6.242-6.25-16.383-6.25-22.625,0l-36.991,36.991l-83.907,22.884
		c-5.5,1.504-9.789,5.82-11.254,11.332s0.117,11.387,4.152,15.418l104,104c3.039,3.039,7.125,4.688,11.313,4.688
		c1.371,0,2.75-0.176,4.105-0.535c5.512-1.465,9.828-5.754,11.332-11.254l22.884-83.907l36.991-36.991
		C297.564,61.066,297.564,50.934,291.314,44.688z"/>
	<path style="fill:#CB202C;" d="M275.313,28.688c6.25,6.246,6.25,16.379,0,22.625l-36.991,36.991l-22.884,83.907
		c-1.504,5.5-5.82,9.789-11.332,11.254C202.75,183.824,201.371,184,200,184c-4.184,0-8.266-1.646-11.304-4.681l15.993,15.993
		c3.039,3.039,7.125,4.688,11.313,4.688c1.371,0,2.75-0.176,4.105-0.535c5.512-1.465,9.828-5.754,11.332-11.254l22.884-83.907
		l36.991-36.991c6.25-6.246,6.25-16.379,0-22.625L275.313,28.688z"/>
	<circle style="fill:#8EADBE;" cx="384" cy="248" r="32"/>
	<circle style="fill:#B1C3D0;" cx="384" cy="248" r="8"/>
	<circle style="fill:#B1C3D0;" cx="384" cy="248" r="8"/>
	<path style="fill:#566E7F;" d="M352.002,512h-224c-8.837,0-16-7.163-16-16v-32c0-8.837,7.163-16,16-16h224c8.837,0,16,7.163,16,16
		v32C368.002,504.837,360.838,512,352.002,512z"/>
	<path style="fill:#35495C;" d="M352.002,480L352.002,480c0,8.837-7.163,16-16,16h-192c-8.837,0-16,7.163-16,16l0,0h184h-128h168
		c8.837,0,16-7.163,16-16v-32l0,0C359.165,464,352.002,471.163,352.002,480z"/>
	<path style="fill:#35495C;" d="M192.002,448h-40v-8c0-4.418,3.582-8,8-8h24c4.418,0,8,3.582,8,8V448z"/>
	<path style="fill:#B1C3D0;" d="M317.309,448l78.623-170.352C392.239,279.136,388.226,280,384,280
		c-8.075,0-15.363-3.091-20.994-8.025L282.077,448H317.309z"/>
	<path style="fill:#B1C3D0;" d="M284.494,78.004c-0.583-0.729-1.241-1.356-1.916-1.955l-22.589,22.589l97.885,130.975
		C363.667,221.399,373.186,216,384,216c1.479,0,2.891,0.241,4.315,0.435L284.494,78.004z"/>
	<path style="fill:#8EADBE;" d="M282.578,76.049l-22.589,22.589l10.264,13.734l22.867-22.867l-8.626-11.501
		C283.911,77.275,283.253,76.647,282.578,76.049z"/>
	<path style="fill:#F09820;" d="M167.25,157.873C161.414,164.075,153.189,168,144,168c-6.79,0-13.06-2.146-18.239-5.752
		c5.782,8.297,15.361,13.752,26.241,13.752c9.188,0,17.413-3.924,23.249-10.126L167.25,157.873z"/>
</g>
<g>
</g>
<g>
</g>
<g>
</g>
<g>
</g>
<g>
</g>
<g>
</g>
<g>
</g>
<g>
</g>
<g>
</g>
<g>
</g>
<g>
</g>
<g>
</g>
<g>
</g>
<g>
</g>
<g>
</g>
</svg>
