<?xml version="1.0" encoding="iso-8859-1"?>
<!-- Generator: Adobe Illustrator 18.0.0, SVG Export Plug-In . SVG Version: 6.00 Build 0)  -->
<!DOCTYPE svg PUBLIC "-//W3C//DTD SVG 1.1//EN" "http://www.w3.org/Graphics/SVG/1.1/DTD/svg11.dtd">
<svg version="1.1" id="Capa_1" xmlns="http://www.w3.org/2000/svg" xmlns:xlink="http://www.w3.org/1999/xlink" x="0px" y="0px"
	 viewBox="0 0 512 512" style="enable-background:new 0 0 512 512;" xml:space="preserve">
<g>
	<path style="fill:#B1C3D0;" d="M280,184H64v-80c0-8.824,7.18-16,16-16V56c-26.469,0-48,21.531-48,48v96c0,8.836,7.164,16,16,16h216
		v112h32V200C296,191.164,288.836,184,280,184z"/>
	<path style="fill:#566E7F;" d="M304,328h-48c-8.836,0-16,7.164-16,16v152c0,8.836,7.164,16,16,16h48c8.836,0,16-7.164,16-16V344
		C320,335.164,312.836,328,304,328z"/>
	<path style="fill:#F5B445;" d="M448,0H112C94.327,0,80,14.327,80,32v80c0,17.673,14.327,32,32,32h336c17.673,0,32-14.327,32-32V32
		C480,14.327,465.673,0,448,0z"/>
	<path style="fill:#F09820;" d="M464,48v24c0,8.837-7.163,16-16,16H168c-30.928,0-56,25.072-56,56v0l0,0h104h144h88
		c17.673,0,32-14.327,32-32V32l0,0C471.163,32,464,39.163,464,48z"/>
	<path style="fill:#3F556B;" d="M304,360v136h-32c-8.837,0-16,7.163-16,16l0,0h48c8.837,0,16-7.163,16-16V344l0,0
		C311.163,344,304,351.163,304,360z"/>
	<path style="fill:#8EADBE;" d="M280,328h16V200h-14c-1.105,0-2,0.895-2,2V328z"/>
	<path style="fill:#8EADBE;" d="M48,202v14h216v-14c0-1.105-0.895-2-2-2H50C48.895,200,48,200.895,48,202z"/>
	<path style="fill:#8EADBE;" d="M50,184h14v-80H50c-1.105,0-2,0.895-2,2v76C48,183.105,48.895,184,50,184z"/>
</g>
<g>
</g>
<g>
</g>
<g>
</g>
<g>
</g>
<g>
</g>
<g>
</g>
<g>
</g>
<g>
</g>
<g>
</g>
<g>
</g>
<g>
</g>
<g>
</g>
<g>
</g>
<g>
</g>
<g>
</g>
</svg>
