<?xml version="1.0" encoding="iso-8859-1"?>
<!-- Generator: Adobe Illustrator 19.0.0, SVG Export Plug-In . SVG Version: 6.00 Build 0)  -->
<svg version="1.1" id="Layer_1" xmlns="http://www.w3.org/2000/svg" xmlns:xlink="http://www.w3.org/1999/xlink" x="0px" y="0px"
	 viewBox="0 0 512 512" style="enable-background:new 0 0 512 512;" xml:space="preserve">
<path style="fill:#F67656;" d="M501.018,153.38c-7.324-7.319-16.924-10.988-26.524-10.988H105.372v216.865h369.121
	c9.6,0,19.2-3.658,26.524-10.975c7.319-7.324,10.982-16.914,10.982-26.527V179.899C512,170.299,508.337,160.704,501.018,153.38z
	 M162.537,311.7c0,5.281-4.324,9.618-9.603,9.618c-5.284,0-9.613-4.334-9.613-9.618v-19.218c0-5.281,4.329-9.6,9.613-9.6
	c5.279,0,9.603,4.319,9.603,9.6V311.7z M162.537,260.431c0,5.297-4.324,9.613-9.603,9.613c-5.284,0-9.613-4.316-9.613-9.613v-19.208
	c0-5.286,4.329-9.608,9.613-9.608c5.279,0,9.603,4.321,9.603,9.608V260.431z M162.537,209.172c0,5.286-4.324,9.603-9.603,9.603
	c-5.284,0-9.613-4.316-9.613-9.603V189.96c0-5.286,4.329-9.608,9.613-9.608c5.279,0,9.603,4.321,9.603,9.608V209.172z
	 M214.459,311.713c0,5.271-4.324,9.605-9.608,9.605s-9.608-4.334-9.608-9.605v-19.231c0-5.281,4.324-9.6,9.608-9.6
	s9.608,4.319,9.608,9.6V311.713z M214.459,260.431c0,5.297-4.324,9.613-9.608,9.613s-9.608-4.316-9.608-9.613v-19.208
	c0-5.286,4.324-9.608,9.608-9.608s9.608,4.321,9.608,9.608V260.431z M214.459,209.175c0,5.284-4.324,9.6-9.608,9.6
	s-9.608-4.316-9.608-9.6V189.96c0-5.286,4.324-9.608,9.608-9.608s9.608,4.321,9.608,9.608V209.175z M266.371,311.713
	c0,5.271-4.321,9.605-9.603,9.605c-5.286,0-9.608-4.334-9.608-9.605v-19.231c0-5.281,4.321-9.6,9.608-9.6
	c5.284,0,9.603,4.319,9.603,9.6V311.713z M266.371,260.431c0,5.297-4.321,9.613-9.603,9.613c-5.286,0-9.608-4.316-9.608-9.613
	v-19.208c0-5.286,4.321-9.608,9.608-9.608c5.284,0,9.603,4.321,9.603,9.608V260.431z M266.371,209.175c0,5.284-4.321,9.6-9.603,9.6
	c-5.286,0-9.608-4.316-9.608-9.6V189.96c0-5.286,4.321-9.608,9.608-9.608c5.284,0,9.603,4.321,9.603,9.608V209.175z M318.292,311.7
	c0,5.281-4.321,9.618-9.61,9.618c-5.281,0-9.608-4.334-9.608-9.618v-19.218c0-5.281,4.324-9.6,9.608-9.6
	c5.286,0,9.61,4.319,9.61,9.6V311.7z M318.292,260.431c0,5.297-4.321,9.613-9.61,9.613c-5.281,0-9.608-4.316-9.608-9.613v-19.208
	c0-5.286,4.324-9.608,9.608-9.608c5.286,0,9.61,4.321,9.61,9.608V260.431z M318.292,209.172c0,5.286-4.321,9.603-9.61,9.603
	c-5.281,0-9.608-4.316-9.608-9.603V189.96c0-5.286,4.324-9.608,9.608-9.608c5.286,0,9.61,4.321,9.61,9.608V209.172z
	 M370.212,311.713c0,5.271-4.321,9.605-9.605,9.605c-5.286,0-9.608-4.334-9.608-9.605v-19.231c0-5.281,4.321-9.6,9.608-9.6
	c5.284,0,9.605,4.319,9.605,9.6V311.713z M370.212,260.431c0,5.297-4.321,9.613-9.605,9.613c-5.286,0-9.608-4.316-9.608-9.613
	v-19.208c0-5.286,4.321-9.608,9.608-9.608c5.284,0,9.605,4.321,9.605,9.608V260.431z M370.212,209.175c0,5.284-4.321,9.6-9.605,9.6
	c-5.286,0-9.608-4.316-9.608-9.6V189.96c0-5.286,4.321-9.608,9.608-9.608c5.284,0,9.605,4.321,9.605,9.608V209.175z M422.131,311.7
	c0,5.281-4.321,9.618-9.605,9.618c-5.286,0-9.608-4.334-9.608-9.618v-19.218c0-5.271,4.321-9.6,9.608-9.6
	c5.281,0,9.605,4.329,9.605,9.6V311.7z M422.131,260.431c0,5.297-4.321,9.613-9.605,9.613c-5.286,0-9.608-4.316-9.608-9.613v-19.208
	c0-5.286,4.321-9.608,9.608-9.608c5.281,0,9.605,4.321,9.605,9.608V260.431z M422.131,209.172c0,5.286-4.321,9.603-9.605,9.603
	c-5.286,0-9.608-4.316-9.608-9.603V189.96c0-5.286,4.321-9.608,9.608-9.608c5.281,0,9.605,4.321,9.605,9.608V209.172z
	 M474.051,311.7c0,5.281-4.324,9.618-9.608,9.618c-5.284,0-9.61-4.334-9.61-9.618v-19.218c0-5.281,4.324-9.6,9.61-9.6
	c5.281,0,9.608,4.319,9.608,9.6V311.7z M474.051,260.431c0,5.297-4.324,9.613-9.608,9.613c-5.284,0-9.61-4.316-9.61-9.613v-19.208
	c0-5.286,4.324-9.608,9.61-9.608c5.281,0,9.608,4.321,9.608,9.608V260.431z M474.051,209.172c0,5.286-4.324,9.603-9.608,9.603
	c-5.284,0-9.61-4.316-9.61-9.603V189.96c0-5.286,4.324-9.608,9.61-9.608c5.281,0,9.608,4.321,9.608,9.608V209.172z"/>
<path style="fill:#D9D8D7;" d="M463.78,472.1H105.372c-15.071,0-29.238-5.87-39.895-16.525
	c-10.655-10.657-16.525-24.817-16.525-39.887s5.87-29.243,16.525-39.905c10.66-10.652,24.824-16.525,39.895-16.525h355.121
	c7.488,0,13.558,6.072,13.558,13.568c0,7.48-6.07,13.55-13.558,13.55H105.372c-7.831,0-15.188,3.041-20.721,8.584
	c-5.537,5.537-8.586,12.9-8.586,20.731c0,7.826,3.049,15.183,8.586,20.718c5.535,5.537,12.892,8.584,20.721,8.584H463.78
	c7.488,0,13.553,6.07,13.553,13.568C477.332,466.033,471.268,472.1,463.78,472.1z"/>
<path style="fill:#3F4A5A;" d="M0,24.133c0,7.457,6.1,13.558,13.55,13.55l62.5,0.008l0.008-27.108H13.55
	C6.1,10.583,0,16.676,0,24.133z"/>
<path style="fill:#D9D8D7;" d="M115.958,27.108c-10.66-10.655-24.835-16.525-39.9-16.525v27.108c7.826,0,15.191,3.049,20.726,8.584
	c5.537,5.542,8.586,12.9,8.586,20.728v75.387h27.11V67.003C132.48,51.935,126.61,37.765,115.958,27.108z"/>
<path style="fill:#3F4A5A;" d="M512,458.555c0,23.657-19.2,42.862-42.867,42.862c-23.657,0-42.857-19.205-42.857-42.862
	c0-23.68,19.2-42.867,42.857-42.867C492.8,415.688,512,434.875,512,458.555z"/>
<path style="fill:#FFFFFF;" d="M487.887,458.555c0,10.345-8.407,18.749-18.755,18.749c-10.34,0-18.749-8.404-18.749-18.749
	c0-10.368,8.41-18.755,18.749-18.755C479.48,439.8,487.887,448.187,487.887,458.555z"/>
<path style="fill:#3F4A5A;" d="M191.099,458.555c0,23.67-19.2,42.862-42.862,42.862s-42.867-19.192-42.867-42.862
	c0-23.68,19.203-42.867,42.867-42.867S191.099,434.875,191.099,458.555z"/>
<path style="fill:#FFFFFF;" d="M166.991,458.555c0,10.345-8.404,18.749-18.755,18.749s-18.755-8.404-18.755-18.749
	c0-10.368,8.404-18.755,18.755-18.755S166.991,448.187,166.991,458.555z"/>
<g>
</g>
<g>
</g>
<g>
</g>
<g>
</g>
<g>
</g>
<g>
</g>
<g>
</g>
<g>
</g>
<g>
</g>
<g>
</g>
<g>
</g>
<g>
</g>
<g>
</g>
<g>
</g>
<g>
</g>
</svg>
