<?xml version="1.0" encoding="iso-8859-1"?>
<!-- Generator: Adobe Illustrator 18.0.0, SVG Export Plug-In . SVG Version: 6.00 Build 0)  -->
<!DOCTYPE svg PUBLIC "-//W3C//DTD SVG 1.1//EN" "http://www.w3.org/Graphics/SVG/1.1/DTD/svg11.dtd">
<svg version="1.1" id="Capa_1" xmlns="http://www.w3.org/2000/svg" xmlns:xlink="http://www.w3.org/1999/xlink" x="0px" y="0px"
	 viewBox="0 0 60.001 60.001" style="enable-background:new 0 0 60.001 60.001;" xml:space="preserve">
<g>
	<path d="M56.5,50.001h-6.625c2.315-3.35,3.624-7.597,3.618-11.913c0.03-0.137,0.175-0.442,0.362-0.802l-0.79,0.541
		c-1.615,1.004-3.24,1.752-4.866,2.248c-5.272,1.607-8.662,4.877-10.372,9.927h-2.129c1.828-6.004,5.834-9.984,11.919-11.84
		c1.46-0.445,2.926-1.122,4.357-2.01l3.886-2.659c0.287-0.637,0.467-1.171,0.504-1.618c0.124-1.493,0.339-3.002,0.554-4.41
		c0.07-0.456,0.118-0.912,0.161-1.368l-1.556,3.328c-1.575,3.292-4.43,5.585-8.489,6.822c-6.956,2.123-11.46,6.749-13.413,13.754
		h-2.587c-1.953-7.005-6.458-11.631-13.413-13.754c-4.059-1.237-6.914-3.53-8.485-6.814l-3.29-7.034
		c-0.093,1.673-0.018,3.369,0.241,5.064c0.215,1.407,0.431,2.915,0.554,4.41c0.073,0.882,0.694,2.1,1.638,3.814l2.742,1.427
		c0.699,0.431,1.437,0.528,2.29,0.643c0.625,0.083,1.334,0.178,2.077,0.403c6.085,1.856,10.091,5.837,11.919,11.841h-2.129
		c-1.71-5.05-5.1-8.32-10.372-9.928c-0.586-0.178-1.155-0.254-1.758-0.334c-0.991-0.132-2.017-0.269-3.015-0.889l-0.503-0.262
		c0.111,4.181,1.394,8.21,3.602,11.412H0.5v2h14.656H16.5v1h2v-1h1v1h2v-1h1v1h2v-1h2.049h9.901H38.5v1h2v-1h1v1h2v-1h1v1h2v-1
		h1.343H56.5c0.551,0,1,0.448,1,1s-0.449,1-1,1H43.143H19.856H0.5v2h19.082c4.366,2.74,9.213,4,11.918,4
		c2.704,0,7.549-1.26,11.916-4H56.5c1.654,0,3-1.346,3-3S58.155,50.001,56.5,50.001z"/>
	<path d="M41.5,17.001c1.654,0,3,1.346,3,3s-1.346,3-3,3s-3-1.346-3-3S39.846,17.001,41.5,17.001z"/>
	<path d="M18.202,34.335c6.986,2.131,11.72,6.552,14.124,13.156c2.404-6.603,7.138-11.025,14.124-13.156
		c3.501-1.068,5.945-3.008,7.265-5.766l3.357-7.18c-0.648-6.673-4.002-12.89-9.452-17.069l-5.366-4.113
		c-0.317-0.242-0.749-0.273-1.097-0.079l-5.983,3.349c-1.559,0.872-2.825,2.162-3.673,3.7c-0.847-1.536-2.111-2.824-3.668-3.695
		l-5.986-3.353c-0.349-0.196-0.779-0.166-1.097,0.078L15.39,4.311c-4.724,3.618-7.871,8.767-9.055,14.417l4.605,9.848
		C12.257,31.327,14.701,33.266,18.202,34.335z M26.5,34.001c-0.551,0-1,0.448-1,1h-2c0-1.654,1.346-3,3-3s3,1.346,3,3h-2
		C27.5,34.449,27.052,34.001,26.5,34.001z M33.5,40.001c0-0.552-0.449-1-1-1c-0.551,0-1,0.448-1,1h-2c0-1.654,1.346-3,3-3
		c1.654,0,3,1.346,3,3H33.5z M37.5,35.001c0-0.552-0.449-1-1-1s-1,0.448-1,1h-2c0-1.654,1.346-3,3-3s3,1.346,3,3H37.5z M21.5,9.001
		c4.439,0,8.264,2.649,10,6.444c1.736-3.796,5.561-6.444,10-6.444c6.065,0,11,4.935,11,11s-4.935,11-11,11
		c-1.9,0-3.685-0.488-5.245-1.341l-4.048,4.048c-0.195,0.195-0.451,0.293-0.707,0.293s-0.512-0.098-0.707-0.293l-4.048-4.048
		c-1.559,0.853-3.345,1.341-5.245,1.341c-6.065,0-11-4.935-11-11S15.435,9.001,21.5,9.001z"/>
	<path d="M31.5,31.587l3.063-3.063c-0.031-0.025-0.057-0.055-0.088-0.08c-0.275-0.229-0.542-0.468-0.793-0.723
		c-0.07-0.07-0.133-0.146-0.201-0.218c-0.175-0.188-0.343-0.381-0.505-0.58c-0.087-0.107-0.175-0.212-0.258-0.322
		c-0.186-0.247-0.36-0.503-0.526-0.766c-0.075-0.119-0.145-0.241-0.216-0.364c-0.137-0.237-0.265-0.48-0.384-0.728
		c-0.029-0.06-0.066-0.116-0.094-0.177c-0.028,0.061-0.065,0.117-0.094,0.177c-0.119,0.248-0.247,0.49-0.384,0.726
		c-0.071,0.123-0.141,0.246-0.217,0.365c-0.164,0.262-0.338,0.517-0.523,0.763c-0.084,0.112-0.174,0.219-0.263,0.328
		c-0.159,0.195-0.323,0.384-0.495,0.568c-0.071,0.075-0.137,0.154-0.21,0.228c-0.249,0.252-0.514,0.489-0.786,0.716
		c-0.032,0.027-0.06,0.058-0.092,0.084L31.5,31.587z"/>
	<path d="M21.5,17.001c1.654,0,3,1.346,3,3s-1.346,3-3,3s-3-1.346-3-3S19.846,17.001,21.5,17.001z"/>
</g>
<g>
</g>
<g>
</g>
<g>
</g>
<g>
</g>
<g>
</g>
<g>
</g>
<g>
</g>
<g>
</g>
<g>
</g>
<g>
</g>
<g>
</g>
<g>
</g>
<g>
</g>
<g>
</g>
<g>
</g>
</svg>
