<?xml version="1.0" encoding="UTF-8"?>
<svg width="504px" height="438px" viewBox="0 0 504 438" version="1.1" xmlns="http://www.w3.org/2000/svg" xmlns:xlink="http://www.w3.org/1999/xlink">
    <!-- Generator: Sketch 42 (36781) - http://www.bohemiancoding.com/sketch -->
    <title>picture-upload</title>
    <desc>Created with Sketch.</desc>
    <defs></defs>
    <g id="Page-1" stroke="none" stroke-width="1" fill="none" fill-rule="evenodd">
        <g id="picture-upload" fill-rule="nonzero">
            <path d="M16.502,102.838 L396.564,1.225 C408.379,-1.926 420.982,5.163 424.133,16.979 L499.358,296.216 C502.509,308.031 495.42,320.241 483.21,323.391 L103.149,425.004 C91.334,428.155 78.731,421.066 75.58,409.25 L0.749,130.013 C-2.402,118.198 4.687,105.989 16.502,102.838 Z" id="Shape" fill="#E4E7E7"></path>
            <path d="M48.404,125.287 L380.81,36.672 C389.868,34.309 399.321,39.823 402.078,48.881 L464.306,280.069 C466.669,289.127 461.155,298.58 452.097,300.943 L119.69,389.558 C110.632,391.921 101.179,386.407 98.422,377.349 L36.195,146.161 C33.438,137.102 38.952,127.65 48.404,125.287 Z" id="Shape" fill="#3ED8EC"></path>
            <path d="M85.425,98.899 L481.24,98.899 C493.843,98.899 503.689,109.139 503.689,121.348 L503.689,414.763 C503.689,427.366 493.449,437.212 481.24,437.212 L85.425,437.212 C72.822,437.212 62.976,426.972 62.976,414.763 L62.976,121.349 C62.976,109.139 73.216,98.899 85.425,98.899 Z" id="Shape" fill="#F3F3F3"></path>
            <path d="M111.813,130.407 L455.641,130.407 C465.093,130.407 472.97,138.284 472.97,147.736 L472.97,388.77 C472.97,398.222 465.093,406.099 455.641,406.099 L111.813,406.099 C102.361,406.099 94.484,398.222 94.484,388.77 L94.484,147.736 C94.484,138.284 101.967,130.407 111.813,130.407 Z" id="Shape" fill="#A3F4FF"></path>
            <path d="M94.484,147.736 L94.484,232.019 C98.422,232.413 102.361,232.807 106.299,232.807 C156.317,232.807 196.884,192.241 196.884,142.222 C196.884,138.284 196.49,134.345 196.096,130.407 L111.813,130.407 C101.967,130.407 94.484,138.284 94.484,147.736 Z" id="Shape" fill="#EFDA5E"></path>
            <path d="M123.235,323.392 C113.389,323.392 103.543,324.18 94.484,325.361 L94.484,388.77 C94.484,398.222 102.361,406.099 111.813,406.099 L242.964,406.099 C243.752,402.554 244.146,399.404 244.146,395.859 C244.145,355.687 190.189,323.392 123.235,323.392 Z" id="Shape" fill="#3DB36F"></path>
            <path d="M397.745,287.945 C289.831,287.945 202.003,340.72 200.822,406.099 L455.247,406.099 C464.699,406.099 472.576,398.222 472.576,388.77 L472.576,297.004 C449.339,291.49 424.133,287.945 397.745,287.945 Z" id="Shape" fill="#4BC270"></path>
        </g>
    </g>
</svg>